# Blender 5.0.0
# www.blender.org
mtllib solenoide_fuera.mtl
o Cube
v -0.981661 -1.010229 0.335654
v -0.981661 -0.332486 1.013396
v -0.981661 -0.919429 0.674525
v -0.981661 -0.671358 0.922596
v -0.981661 0.312028 1.013396
v -0.981661 0.989771 0.335654
v -0.981661 0.650900 0.922596
v -0.981661 0.898971 0.674525
v -0.981661 -0.332486 -0.986604
v -0.981661 -1.010229 -0.308861
v -0.981661 -0.671358 -0.895803
v -0.981661 -0.919429 -0.647732
v -0.981661 0.989771 -0.308861
v -0.981661 0.312028 -0.986604
v -0.981661 0.898971 -0.647732
v -0.981661 0.650900 -0.895803
v 1.018339 -0.332486 1.013396
v 1.018339 -1.010229 0.335654
v 1.018339 -0.671358 0.922596
v 1.018339 -0.919429 0.674525
v 1.018339 0.989771 0.335654
v 1.018339 0.312028 1.013396
v 1.018339 0.898971 0.674525
v 1.018339 0.650900 0.922596
v 1.018339 -1.010229 -0.308861
v 1.018339 -0.332486 -0.986604
v 1.018339 -0.919429 -0.647732
v 1.018339 -0.671358 -0.895803
v 1.018339 0.312028 -0.986604
v 1.018339 0.989771 -0.308861
v 1.018339 0.650900 -0.895803
v 1.018339 0.898971 -0.647732
v -1.793601 -0.800043 -0.281190
v -1.793601 -0.730981 -0.538932
v -1.793601 -0.562557 -0.707355
v -1.793601 -0.304815 -0.776417
v -1.793601 0.710523 -0.538932
v -1.793601 0.779585 -0.281190
v -1.793601 0.542099 -0.707355
v -1.793601 0.284357 -0.776417
v -1.793601 -0.730981 0.565724
v -1.793601 -0.800043 0.307982
v -1.793601 -0.562557 0.734148
v -1.793601 -0.304815 0.803210
v -1.793601 0.779585 0.307982
v -1.793601 0.710523 0.565724
v -1.793601 0.542099 0.734148
v -1.793601 0.284357 0.803210
v -1.793601 -1.010229 -0.308861
v -1.793601 -0.919429 -0.647732
v -1.793601 -0.671358 -0.895803
v -1.793601 -0.332486 -0.986604
v -1.793601 0.898971 -0.647732
v -1.793601 0.989771 -0.308861
v -1.793601 0.650900 -0.895803
v -1.793601 0.312028 -0.986604
v -1.793601 -0.919429 0.674525
v -1.793601 -1.010229 0.335654
v -1.793601 -0.671358 0.922596
v -1.793601 -0.332486 1.013396
v -1.793601 0.989771 0.335654
v -1.793601 0.898971 0.674525
v -1.793601 0.650900 0.922596
v -1.793601 0.312028 1.013396
v -1.595543 -0.477263 -0.238695
v -1.595543 -0.441585 -0.371849
v -1.595543 -0.395474 -0.417959
v -1.595543 -0.262320 -0.453638
v -1.595543 0.421127 -0.371849
v -1.595543 0.456805 -0.238695
v -1.595543 0.375016 -0.417959
v -1.595543 0.241862 -0.453638
v -1.595543 -0.441585 0.398641
v -1.595543 -0.477263 0.265487
v -1.595543 -0.395474 0.444752
v -1.595543 -0.262320 0.480431
v -1.595543 0.456805 0.265487
v -1.595543 0.421127 0.398641
v -1.595543 0.375016 0.444752
v -1.595543 0.241862 0.480431
v -1.595543 -0.800043 -0.281190
v -1.595543 -0.730981 -0.538932
v -1.595543 -0.562557 -0.707355
v -1.595543 -0.304815 -0.776417
v -1.595543 0.710523 -0.538932
v -1.595543 0.779585 -0.281190
v -1.595543 0.542099 -0.707355
v -1.595543 0.284357 -0.776417
v -1.595543 -0.730981 0.565724
v -1.595543 -0.800043 0.307982
v -1.595543 -0.562557 0.734148
v -1.595543 -0.304815 0.803210
v -1.595543 0.779585 0.307982
v -1.595543 0.710523 0.565724
v -1.595543 0.542099 0.734148
v -1.595543 0.284357 0.803210
v -0.594654 -0.477263 -0.238695
v -0.594654 -0.441585 -0.371849
v -0.594654 -0.395474 -0.417959
v -0.594654 -0.262320 -0.453638
v -0.594654 0.421127 -0.371849
v -0.594654 0.456805 -0.238695
v -0.594654 0.375016 -0.417959
v -0.594654 0.241862 -0.453638
v -0.594654 -0.441585 0.398641
v -0.594654 -0.477263 0.265487
v -0.594654 -0.395474 0.444752
v -0.594654 -0.262320 0.480431
v -0.594654 0.456805 0.265487
v -0.594654 0.421127 0.398641
v -0.594654 0.375016 0.444752
v -0.594654 0.241862 0.480431
vn -0.0000 -0.9659 -0.2588
vn -0.0000 -0.7071 -0.7071
vn -0.0000 -0.2588 -0.9659
vn -0.0000 0.9659 -0.2588
vn -0.0000 0.7071 -0.7071
vn -0.0000 0.2588 -0.9659
vn -0.0000 -0.9659 0.2588
vn -0.0000 -0.7071 0.7071
vn -0.0000 -0.2588 0.9659
vn -0.0000 0.9659 0.2588
vn -0.0000 0.7071 0.7071
vn -0.0000 0.2588 0.9659
vn -0.0000 -1.0000 -0.0000
vn -0.0000 -0.0000 1.0000
vn -0.0000 1.0000 -0.0000
vn -0.0000 -0.0000 -1.0000
vn 1.0000 -0.0000 -0.0000
vn -1.0000 -0.0000 -0.0000
vt 0.375000 0.584718
vt 0.125000 0.584718
vt 0.125000 0.542359
vt 0.378783 0.542359
vt 0.125000 0.500000
vt 0.389120 0.503783
vt 0.396179 0.244325
vt 0.459718 0.250000
vt 0.459718 0.500000
vt 0.875000 0.584718
vt 0.625000 0.584718
vt 0.621217 0.514120
vt 0.875000 0.500000
vt 0.619325 0.228821
vt 0.582641 0.503783
vt 0.582641 0.246217
vt 0.540282 0.500000
vt 0.540282 0.250000
vt 0.125000 0.665282
vt 0.375000 0.665282
vt 0.378783 0.707641
vt 0.125000 0.707641
vt 0.389120 0.746217
vt 0.125000 0.750000
vt 0.375000 1.000000
vt 0.459718 0.750000
vt 0.459718 1.000000
vt 0.625000 0.665282
vt 0.875000 0.665282
vt 0.875000 0.750000
vt 0.621217 0.735880
vt 0.625000 1.000000
vt 0.582641 1.000000
vt 0.582641 0.746217
vt 0.540282 1.000000
vt 0.540282 0.750000
vt 0.599528 0.165925
vt 0.592395 0.204722
vt 0.400176 0.162367
vt 0.406022 0.195327
vt 0.386350 0.207641
vt 0.375000 0.165282
vt 0.421783 0.217842
vt 0.459613 0.225137
vt 0.625000 0.165282
vt 0.569887 0.222377
vt 0.536775 0.226268
vt 0.409738 0.056179
vt 0.401006 0.088456
vt 0.375000 0.084718
vt 0.386350 0.042359
vt 0.430820 0.035118
vt 0.417359 0.011350
vt 0.463041 0.026517
vt 0.459718 0.000000
vt 0.598677 0.088680
vt 0.590027 0.056271
vt 0.613650 0.042359
vt 0.625000 0.084718
vt 0.568965 0.035172
vt 0.582641 0.011350
vt 0.536725 0.026550
vt 0.540282 0.000000
vt 0.468093 0.067306
vt 0.531259 0.067463
vt 0.439461 0.157829
vt 0.443000 0.174750
vt 0.448508 0.180648
vt 0.465601 0.185279
vt 0.554260 0.177951
vt 0.558651 0.160563
vt 0.548357 0.183562
vt 0.531167 0.187033
vt 0.445619 0.077488
vt 0.440997 0.094231
vt 0.451422 0.071714
vt 0.558230 0.094818
vt 0.553732 0.077803
vt 0.547951 0.071958
s 0
f 25/1/1 10/2/1 12/3/1 27/4/1
f 27/4/2 12/3/2 11/5/2 28/6/2
f 28/6/3 11/7/3 9/8/3 26/9/3
f 13/10/4 30/11/4 32/12/4 15/13/4
f 15/14/5 32/12/5 31/15/5 16/16/5
f 16/16/6 31/15/6 29/17/6 14/18/6
f 1/19/7 18/20/7 20/21/7 3/22/7
f 3/22/8 20/21/8 19/23/8 4/24/8
f 4/25/9 19/23/9 17/26/9 2/27/9
f 21/28/10 6/29/10 8/30/10 23/31/10
f 23/31/11 8/32/11 7/33/11 24/34/11
f 24/34/12 7/33/12 5/35/12 22/36/12
f 10/2/13 25/1/13 18/20/13 1/19/13
f 3/22/8 4/24/8 59/24/8 57/22/8
f 17/26/14 22/36/14 5/35/14 2/27/14
f 30/11/15 13/10/15 6/29/15 21/28/15
f 9/8/16 14/18/16 29/17/16 26/9/16
f 25/1/17 27/4/17 28/6/17 26/9/17 29/17/17 31/15/17 32/12/17 30/11/17 21/28/17 23/31/17 24/34/17 22/36/17 17/26/17 19/23/17 20/21/17 18/20/17
f 38/37/7 37/38/7 85/38/7 86/37/7
f 12/3/1 10/2/1 49/2/1 50/3/1
f 16/16/6 14/18/6 56/18/6 55/16/6
f 8/30/10 6/29/10 61/29/10 62/30/10
f 13/10/4 15/13/4 53/13/4 54/10/4
f 10/2/13 1/19/13 58/19/13 49/2/13
f 4/25/9 2/27/9 60/27/9 59/25/9
f 2/27/14 5/35/14 64/35/14 60/27/14
f 11/5/2 12/3/2 50/3/2 51/5/2
f 1/19/7 3/22/7 57/22/7 58/19/7
f 7/33/11 8/32/11 62/32/11 63/33/11
f 6/29/15 13/10/15 54/10/15 61/29/15
f 15/14/5 16/16/5 55/16/5 53/14/5
f 14/18/16 9/8/16 52/8/16 56/18/16
f 9/8/3 11/7/3 51/7/3 52/8/3
f 5/35/12 7/33/12 63/33/12 64/35/12
f 33/39/18 34/40/18 50/41/18 49/42/18
f 34/40/18 35/43/18 51/7/18 50/41/18
f 35/43/18 36/44/18 52/8/18 51/7/18
f 37/38/18 38/37/18 54/45/18 53/14/18
f 39/46/18 37/38/18 53/14/18 55/16/18
f 40/47/18 39/46/18 55/16/18 56/18/18
f 41/48/18 42/49/18 58/50/18 57/51/18
f 43/52/18 41/48/18 57/51/18 59/53/18
f 44/54/18 43/52/18 59/53/18 60/55/18
f 45/56/18 46/57/18 62/58/18 61/59/18
f 46/57/18 47/60/18 63/61/18 62/58/18
f 47/60/18 48/62/18 64/63/18 63/61/18
f 42/49/18 33/39/18 49/42/18 58/50/18
f 48/62/18 44/54/18 60/55/18 64/63/18
f 38/37/18 45/56/18 61/59/18 54/45/18
f 36/44/18 40/47/18 56/18/18 52/8/18
f 76/64/16 80/65/16 112/65/16 108/64/16
f 48/62/3 47/60/3 95/60/3 96/62/3
f 37/38/8 39/46/8 87/46/8 85/38/8
f 33/39/15 42/49/15 90/49/15 81/39/15
f 39/46/9 40/47/9 88/47/9 87/46/9
f 44/54/16 48/62/16 96/62/16 92/54/16
f 42/49/4 41/48/4 89/48/4 90/49/4
f 45/56/13 38/37/13 86/37/13 93/56/13
f 41/48/5 43/52/5 91/52/5 89/48/5
f 34/40/10 33/39/10 81/39/10 82/40/10
f 40/47/14 36/44/14 84/44/14 88/47/14
f 43/52/6 44/54/6 92/54/6 91/52/6
f 35/43/11 34/40/11 82/40/11 83/43/11
f 46/57/1 45/56/1 93/56/1 94/57/1
f 36/44/12 35/43/12 83/43/12 84/44/12
f 47/60/2 46/57/2 94/57/2 95/60/2
f 65/66/18 66/67/18 82/40/18 81/39/18
f 66/67/18 67/68/18 83/43/18 82/40/18
f 67/68/18 68/69/18 84/44/18 83/43/18
f 69/70/18 70/71/18 86/37/18 85/38/18
f 71/72/18 69/70/18 85/38/18 87/46/18
f 72/73/18 71/72/18 87/46/18 88/47/18
f 73/74/18 74/75/18 90/49/18 89/48/18
f 75/76/18 73/74/18 89/48/18 91/52/18
f 76/64/18 75/76/18 91/52/18 92/54/18
f 77/77/18 78/78/18 94/57/18 93/56/18
f 78/78/18 79/79/18 95/60/18 94/57/18
f 79/79/18 80/65/18 96/62/18 95/60/18
f 74/75/18 65/66/18 81/39/18 90/49/18
f 80/65/18 76/64/18 92/54/18 96/62/18
f 70/71/18 77/77/18 93/56/18 86/37/18
f 68/69/18 72/73/18 88/47/18 84/44/18
f 106/75/18 105/74/18 107/76/18 108/64/18 112/65/18 111/79/18 110/78/18 109/77/18 102/71/18 101/70/18 103/72/18 104/73/18 100/69/18 99/68/18 98/67/18 97/66/18
f 74/75/4 73/74/4 105/74/4 106/75/4
f 77/77/13 70/71/13 102/71/13 109/77/13
f 73/74/5 75/76/5 107/76/5 105/74/5
f 66/67/10 65/66/10 97/66/10 98/67/10
f 72/73/14 68/69/14 100/69/14 104/73/14
f 75/76/6 76/64/6 108/64/6 107/76/6
f 67/68/11 66/67/11 98/67/11 99/68/11
f 78/78/1 77/77/1 109/77/1 110/78/1
f 68/69/12 67/68/12 99/68/12 100/69/12
f 79/79/2 78/78/2 110/78/2 111/79/2
f 70/71/7 69/70/7 101/70/7 102/71/7
f 80/65/3 79/79/3 111/79/3 112/65/3
f 69/70/8 71/72/8 103/72/8 101/70/8
f 65/66/15 74/75/15 106/75/15 97/66/15
f 71/72/9 72/73/9 104/73/9 103/72/9
