# Blender 5.0.0
# www.blender.org
mtllib solenoide_dentro.mtl
o Cube.002
v 2.446195 -0.425359 -0.231861
v 2.446195 -0.395049 -0.344981
v 2.446195 -0.368607 -0.371423
v 2.446195 -0.255487 -0.401734
v 2.446195 0.374590 -0.344981
v 2.446195 0.404901 -0.231861
v 2.446195 0.348148 -0.371423
v 2.446195 0.235029 -0.401734
v 2.446195 -0.395049 0.371774
v 2.446195 -0.425359 0.258654
v 2.446195 -0.368607 0.398216
v 2.446195 -0.255487 0.428526
v 2.446195 0.404901 0.258654
v 2.446195 0.374590 0.371774
v 2.446195 0.348148 0.398216
v 2.446195 0.235029 0.428526
v -2.429171 -0.686879 -0.266291
v -2.429171 -0.629521 -0.480354
v -2.429171 -0.503979 -0.605895
v -2.429171 -0.289917 -0.663253
v -2.429171 0.609062 -0.480354
v -2.429171 0.666420 -0.266291
v -2.429171 0.483521 -0.605895
v -2.429171 0.269458 -0.663253
v -2.429171 -0.629521 0.507146
v -2.429171 -0.686879 0.293084
v -2.429171 -0.503979 0.632688
v -2.429171 -0.289917 0.690046
v -2.429171 0.666420 0.293084
v -2.429171 0.609062 0.507146
v -2.429171 0.483521 0.632688
v -2.429171 0.269458 0.690046
v -2.429171 -0.800043 -0.281190
v -2.429171 -0.730981 -0.538932
v -2.429171 -0.562557 -0.707355
v -2.429171 -0.304815 -0.776417
v -2.429171 0.710523 -0.538932
v -2.429171 0.779585 -0.281190
v -2.429171 0.542099 -0.707355
v -2.429171 0.284357 -0.776417
v -2.429171 -0.730981 0.565724
v -2.429171 -0.800043 0.307982
v -2.429171 -0.562557 0.734148
v -2.429171 -0.304815 0.803210
v -2.429171 0.779585 0.307982
v -2.429171 0.710523 0.565724
v -2.429171 0.542099 0.734148
v -2.429171 0.284357 0.803210
v -2.506957 -0.686879 -0.266291
v -2.506957 -0.629521 -0.480354
v -2.506957 -0.503979 -0.605895
v -2.506957 -0.289917 -0.663253
v -2.506957 0.609062 -0.480354
v -2.506957 0.666420 -0.266291
v -2.506957 0.483521 -0.605895
v -2.506957 0.269458 -0.663253
v -2.506957 -0.629521 0.507146
v -2.506957 -0.686879 0.293084
v -2.506957 -0.503979 0.632688
v -2.506957 -0.289917 0.690046
v -2.506957 0.666420 0.293084
v -2.506957 0.609062 0.507146
v -2.506957 0.483521 0.632688
v -2.506957 0.269458 0.690046
v 2.446195 -0.800043 -0.281190
v 2.446195 -0.730981 -0.538932
v 2.446195 -0.562557 -0.707355
v 2.446195 -0.304815 -0.776417
v 2.446195 0.710523 -0.538932
v 2.446195 0.779585 -0.281190
v 2.446195 0.542099 -0.707355
v 2.446195 0.284357 -0.776417
v 2.446195 -0.730981 0.565724
v 2.446195 -0.800043 0.307982
v 2.446195 -0.562557 0.734148
v 2.446195 -0.304815 0.803210
v 2.446195 0.779585 0.307982
v 2.446195 0.710523 0.565724
v 2.446195 0.542099 0.734148
v 2.446195 0.284357 0.803210
v 2.507181 -0.425359 -0.231861
v 2.507181 -0.395049 -0.344981
v 2.507181 -0.368607 -0.371423
v 2.507181 -0.255487 -0.401734
v 2.507181 0.374590 -0.344981
v 2.507181 0.404901 -0.231861
v 2.507181 0.348148 -0.371423
v 2.507181 0.235029 -0.401734
v 2.507181 -0.395049 0.371774
v 2.507181 -0.425359 0.258654
v 2.507181 -0.368607 0.398216
v 2.507181 -0.255487 0.428526
v 2.507181 0.404901 0.258654
v 2.507181 0.374590 0.371774
v 2.507181 0.348148 0.398216
v 2.507181 0.235029 0.428526
vn -0.0000 0.2588 0.9659
vn -0.0000 0.9659 0.2588
vn -0.0000 -0.2588 -0.9659
vn -0.0000 0.7071 0.7071
vn -0.0000 0.9659 -0.2588
vn -0.0000 0.7071 -0.7071
vn -0.0000 -1.0000 -0.0000
vn -0.0000 0.2588 -0.9659
vn -0.0000 -0.0000 1.0000
vn -0.0000 -0.9659 0.2588
vn -0.0000 1.0000 -0.0000
vn -0.0000 -0.7071 0.7071
vn -0.0000 -0.9659 -0.2588
vn -0.0000 -0.0000 -1.0000
vn -0.0000 -0.2588 0.9659
vn -0.0000 -0.7071 -0.7071
vn -1.0000 -0.0000 -0.0000
vn 1.0000 -0.0000 -0.0000
vt 0.544573 0.077900
vt 0.530383 0.074065
vt 0.577298 0.063798
vt 0.584523 0.090940
vt 0.590027 0.056271
vt 0.598677 0.088680
vt 0.459613 0.225137
vt 0.421783 0.217842
vt 0.568965 0.035172
vt 0.599528 0.165925
vt 0.592395 0.204722
vt 0.536725 0.026550
vt 0.569887 0.222377
vt 0.400176 0.162367
vt 0.401006 0.088456
vt 0.536775 0.226268
vt 0.463041 0.026517
vt 0.409738 0.056179
vt 0.430820 0.035118
vt 0.406022 0.195327
vt 0.413697 0.160826
vt 0.418567 0.188202
vt 0.432057 0.204548
vt 0.461271 0.211344
vt 0.578811 0.194571
vt 0.585336 0.164577
vt 0.562470 0.208856
vt 0.534777 0.212949
vt 0.422321 0.063647
vt 0.415001 0.090487
vt 0.438055 0.047943
vt 0.464822 0.040814
vt 0.561591 0.048035
vt 0.534803 0.040871
vt 0.449103 0.171420
vt 0.445978 0.157065
vt 0.452297 0.174801
vt 0.466728 0.178774
vt 0.552013 0.159465
vt 0.548242 0.174105
vt 0.544859 0.177347
vt 0.530281 0.180447
vt 0.447454 0.095155
vt 0.451392 0.080920
vt 0.454724 0.077608
vt 0.468894 0.073870
vt 0.547890 0.081261
vt 0.551706 0.095728
s 0
f 15/1/1 16/2/1 96/2/1 95/1/1
f 30/3/2 29/4/2 61/4/2 62/3/2
f 78/5/2 77/6/2 45/6/2 46/5/2
f 68/7/3 67/8/3 35/8/3 36/7/3
f 79/9/4 78/5/4 46/5/4 47/9/4
f 70/10/5 69/11/5 37/11/5 38/10/5
f 80/12/1 79/9/1 47/9/1 48/12/1
f 69/11/6 71/13/6 39/13/6 37/11/6
f 65/14/7 74/15/7 42/15/7 33/14/7
f 71/13/8 72/16/8 40/16/8 39/13/8
f 76/17/9 80/12/9 48/12/9 44/17/9
f 74/15/10 73/18/10 41/18/10 42/15/10
f 77/6/11 70/10/11 38/10/11 45/6/11
f 73/18/12 75/19/12 43/19/12 41/18/12
f 66/20/13 65/14/13 33/14/13 34/20/13
f 72/16/14 68/7/14 36/7/14 40/16/14
f 75/19/15 76/17/15 44/17/15 43/19/15
f 67/8/16 66/20/16 34/20/16 35/8/16
f 17/21/17 18/22/17 34/20/17 33/14/17
f 18/22/17 19/23/17 35/8/17 34/20/17
f 19/23/17 20/24/17 36/7/17 35/8/17
f 21/25/17 22/26/17 38/10/17 37/11/17
f 23/27/17 21/25/17 37/11/17 39/13/17
f 24/28/17 23/27/17 39/13/17 40/16/17
f 25/29/17 26/30/17 42/15/17 41/18/17
f 27/31/17 25/29/17 41/18/17 43/19/17
f 28/32/17 27/31/17 43/19/17 44/17/17
f 29/4/17 30/3/17 46/5/17 45/6/17
f 30/3/17 31/33/17 47/9/17 46/5/17
f 31/33/17 32/34/17 48/12/17 47/9/17
f 26/30/17 17/21/17 33/14/17 42/15/17
f 32/34/17 28/32/17 44/17/17 48/12/17
f 22/26/17 29/4/17 45/6/17 38/10/17
f 20/24/17 24/28/17 40/16/17 36/7/17
f 58/30/17 57/29/17 59/31/17 60/32/17 64/34/17 63/33/17 62/3/17 61/4/17 54/26/17 53/25/17 55/27/17 56/28/17 52/24/17 51/23/17 50/22/17 49/21/17
f 20/24/3 19/23/3 51/23/3 52/24/3
f 31/33/4 30/3/4 62/3/4 63/33/4
f 22/26/5 21/25/5 53/25/5 54/26/5
f 32/34/1 31/33/1 63/33/1 64/34/1
f 21/25/6 23/27/6 55/27/6 53/25/6
f 17/21/7 26/30/7 58/30/7 49/21/7
f 23/27/8 24/28/8 56/28/8 55/27/8
f 28/32/9 32/34/9 64/34/9 60/32/9
f 26/30/10 25/29/10 57/29/10 58/30/10
f 29/4/11 22/26/11 54/26/11 61/4/11
f 25/29/12 27/31/12 59/31/12 57/29/12
f 18/22/13 17/21/13 49/21/13 50/22/13
f 24/28/14 20/24/14 52/24/14 56/28/14
f 27/31/15 28/32/15 60/32/15 59/31/15
f 19/23/16 18/22/16 50/22/16 51/23/16
f 2/35/18 1/36/18 65/14/18 66/20/18
f 3/37/18 2/35/18 66/20/18 67/8/18
f 4/38/18 3/37/18 67/8/18 68/7/18
f 6/39/18 5/40/18 69/11/18 70/10/18
f 5/40/18 7/41/18 71/13/18 69/11/18
f 7/41/18 8/42/18 72/16/18 71/13/18
f 10/43/18 9/44/18 73/18/18 74/15/18
f 9/44/18 11/45/18 75/19/18 73/18/18
f 11/45/18 12/46/18 76/17/18 75/19/18
f 14/47/18 13/48/18 77/6/18 78/5/18
f 15/1/18 14/47/18 78/5/18 79/9/18
f 16/2/18 15/1/18 79/9/18 80/12/18
f 1/36/18 10/43/18 74/15/18 65/14/18
f 12/46/18 16/2/18 80/12/18 76/17/18
f 13/48/18 6/39/18 70/10/18 77/6/18
f 8/42/18 4/38/18 68/7/18 72/16/18
f 90/43/18 81/36/18 82/35/18 83/37/18 84/38/18 88/42/18 87/41/18 85/40/18 86/39/18 93/48/18 94/47/18 95/1/18 96/2/18 92/46/18 91/45/18 89/44/18
f 7/41/6 5/40/6 85/40/6 87/41/6
f 10/43/7 1/36/7 81/36/7 90/43/7
f 8/42/8 7/41/8 87/41/8 88/42/8
f 16/2/9 12/46/9 92/46/9 96/2/9
f 9/44/10 10/43/10 90/43/10 89/44/10
f 6/39/11 13/48/11 93/48/11 86/39/11
f 11/45/12 9/44/12 89/44/12 91/45/12
f 1/36/13 2/35/13 82/35/13 81/36/13
f 4/38/14 8/42/14 88/42/14 84/38/14
f 12/46/15 11/45/15 91/45/15 92/46/15
f 2/35/16 3/37/16 83/37/16 82/35/16
f 13/48/2 14/47/2 94/47/2 93/48/2
f 3/37/3 4/38/3 84/38/3 83/37/3
f 14/47/4 15/1/4 95/1/4 94/47/4
f 5/40/5 6/39/5 86/39/5 85/40/5
